/* XPM */
static char *result[] = {
/* columns rows colors chars-per-pixel */
"64 64 192 2 ",
"   c #1A1A29",
".  c #191A27",
"X  c #261F35",
"o  c #21212D",
"O  c #242135",
"+  c #2B2234",
"@  c #2B2D35",
"#  c #2E2A3A",
"$  c #262339",
"%  c #302D3C",
"&  c #35343C",
"*  c #47322F",
"=  c #532734",
"-  c #573439",
";  c #7B292E",
":  c #7D2730",
">  c #7C2831",
",  c #6A3E36",
"<  c #64402F",
"1  c #624130",
"2  c #65423B",
"3  c #69423A",
"4  c #6E4A3E",
"5  c #754233",
"6  c #7E4A36",
"7  c #79483A",
"8  c #393645",
"9  c #483F42",
"0  c #3F4145",
"q  c #4E494E",
"w  c #45444B",
"e  c #504E51",
"r  c #5D5B5C",
"t  c #744C42",
"y  c #63615F",
"u  c #7A635F",
"i  c #7E695C",
"p  c #755960",
"a  c #67646F",
"s  c #7A6463",
"d  c #766A6A",
"f  c #7E766D",
"g  c #6F727F",
"h  c #7C7876",
"j  c #74737B",
"k  c #7C7672",
"l  c #973031",
"z  c #9D3434",
"x  c #9E3836",
"c  c #9D3C3C",
"v  c #9F3638",
"b  c #A6393C",
"n  c #A13738",
"m  c #884529",
"M  c #86482F",
"N  c #804A36",
"B  c #864535",
"V  c #8D553B",
"C  c #88553B",
"Z  c #92563B",
"A  c #93593E",
"S  c #964638",
"D  c sienna",
"F  c #8E4747",
"G  c #8E4847",
"H  c #8E4949",
"J  c #9D4A49",
"K  c #835542",
"L  c #8A5543",
"P  c #845A46",
"I  c #8B5B44",
"U  c #84594A",
"Y  c #965C43",
"T  c #985E42",
"R  c #915E4A",
"E  c #8E5E5C",
"W  c #965754",
"Q  c #B9454A",
"!  c #8C624E",
"~  c #9A6144",
"^  c #96654B",
"/  c #9F654B",
"(  c #986749",
")  c #83675D",
"_  c #86695B",
"`  c #8B695A",
"'  c #8C605D",
"]  c #946652",
"[  c #966A56",
"{  c #9D6C56",
"}  c #916A59",
"|  c #9A6C59",
" . c #9E745F",
".. c #A66344",
"X. c #A3694E",
"o. c #A8704C",
"O. c #A36C53",
"+. c #A1735C",
"@. c #9A6361",
"#. c #817D7C",
"$. c #8B7878",
"%. c #A47562",
"&. c #AA7B60",
"*. c #B17676",
"=. c #CA4B56",
"-. c #D34E5C",
";. c #D3505D",
":. c #BE875E",
">. c #89817C",
",. c #98847B",
"<. c #B58A6C",
"1. c #B18675",
"2. c #B48A7B",
"3. c #B6827C",
"4. c #B99979",
"5. c #C5976D",
"6. c #D19D6D",
"7. c #C49372",
"8. c #CF9578",
"9. c #D6A06F",
"0. c #E5B07E",
"q. c #6C7485",
"w. c #697A8C",
"e. c #6E7A87",
"r. c #777A83",
"t. c #657E94",
"y. c #878381",
"u. c #898482",
"i. c #8C8987",
"p. c #8A878B",
"a. c #918C8B",
"s. c #8B8A92",
"d. c #969392",
"f. c #9C9696",
"g. c #9D9994",
"h. c #999798",
"j. c #9D9B9A",
"k. c #97959A",
"l. c #B89784",
"z. c #A19796",
"x. c #A29C9D",
"c. c #A59A99",
"v. c #B79C90",
"b. c #B4A499",
"n. c #A6A4A3",
"m. c #ACA9A6",
"M. c #ADACA9",
"N. c #AAA7A5",
"B. c #B1AFAE",
"V. c #BDBBBA",
"C. c #B9B7B5",
"Z. c #DE9A93",
"A. c #D98792",
"S. c #C1A38A",
"D. c #C8A486",
"F. c #D1AE8E",
"G. c #DBB18B",
"H. c #C0A697",
"J. c #D6B396",
"K. c #DFB896",
"L. c #E8B888",
"P. c #E4BB94",
"I. c #ECBE96",
"U. c #E4BA99",
"Y. c #D199A3",
"T. c #C2B2A1",
"R. c #EBC29C",
"E. c #ECC092",
"W. c #F2C49C",
"Q. c #D7C7B7",
"!. c #ECD0B9",
"~. c #BEBDC1",
"^. c #DECDCC",
"/. c #D8D0CB",
"(. c #DCD7DA",
"). c #E5D7D4",
"_. c #E3DCD9",
"`. c #ECDCDB",
"'. c #E8D7D5",
"]. c #F0DFD0",
"[. c #F1DADC",
"{. c #EAE2DF",
"}. c #F3E7DA",
"|. c #ECEAEC",
" X c #E9E7E5",
".X c #F3EDEB",
"XX c #F5EBE2",
"oX c #F6F4F4",
"OX c #F9F6F6",
"+X c #F9F8F5",
"@X c #FAF7F9",
"#X c #FBFAFB",
/* pixels */
"t.t.t.t.t.t.t.t.t.t.t.t.t.t.t.t.t.t.t.t.t.t.t.t.t.t.t.t.t.t.t.t.t.t.t.t.t.t.t.t.t.t.t.t.t.t.t.t.t.t.t.t.t.t.t.t.t.t.t.t.t.t.t.t.",
"t.t.t.t.t.t.t.t.t.t.t.t.t.t.t.t.t.t.t.t.t.t.t.t.t.t.t.t.t.t.t.t.t.t.t.t.t.t.t.t.t.t.t.t.t.t.t.t.t.t.t.t.t.t.t.t.t.t.t.t.t.t.t.t.",
"t.t.t.t.t.t.t.t.t.t.t.t.t.t.t.t.t.t.t.t.t.t.t.t.t.t.t.t.t.t.t.t.t.t.t.t.t.t.t.t.t.t.t.t.t.t.t.t.t.t.t.t.t.t.t.t.t.t.t.t.t.t.t.t.",
"t.t.t.t.t.t.t.t.t.t.t.t.t.t.t.t.t.t.t.t.t.t.t.t.t.t.t.t.t.t.t.t.t.t.t.t.t.t.t.t.t.t.t.t.t.t.t.t.t.t.t.t.t.t.t.t.t.t.t.t.t.t.t.t.",
"t.t.t.t.t.t.t.t.t.t.t.t.t.t.t.t.t.t.t.t.t.t.t.t.t.t.t.t.t.t.t.t.t.t.t.t.t.t.t.t.t.t.t.t.t.t.t.t.t.t.t.t.t.t.t.t.t.t.t.t.t.t.t.t.",
"t.t.t.t.t.t.t.t.t.t.t.t.t.t.t.t.t.t.t.t.t.t.t.t.t.t.t.t.t.t.t.t.t.t.t.t.t.t.t.t.t.t.t.t.t.t.t.t.t.t.t.t.t.t.t.t.t.t.t.t.t.t.t.t.",
"t.t.t.t.t.t.t.t.t.t.t.t.t.t.t.t.t.t.t.t.t.t.t.t.t.t.t.t.t.t.t.t.t.t.t.t.t.t.t.t.t.t.t.t.t.t.t.t.t.t.t.t.t.t.t.t.t.t.t.t.t.t.t.t.",
"t.t.t.t.t.t.t.t.t.t.t.t.t.t.t.t.t.t.t.t.t.t.t.t.t.t.t.t.t.t.t.t.t.t.t.t.t.t.t.t.t.t.t.t.t.t.t.t.t.t.t.t.t.t.t.t.t.t.t.t.t.t.t.t.",
"t.t.t.t.t.t.t.t.t.t.t.t.t.t.t.t.t.t.t.t.t.t.t.t.t.t.t.t.t.t.t.t.t.t.t.t.t.t.t.t.t.t.t.t.t.t.t.t.t.t.t.t.t.t.t.t.t.t.t.t.t.t.t.t.",
"t.t.t.t.t.t.t.t.t.t.t.t.t.t.t.t.t.t.t.t.t.t.t.t.t.t.t.t.t.t.t.t.t.t.t.t.t.t.t.t.t.t.t.t.t.t.t.t.t.t.t.t.t.t.t.t.t.t.t.t.t.t.t.t.",
"t.t.t.t.t.t.t.t.t.t.t.t.t.t.t.t.t.t.t.t.t.t.t.t.t.t.t.t.t.t.t.t.t.t.t.t.t.t.t.t.t.t.t.t.t.t.t.t.t.t.t.t.t.t.t.t.t.t.t.t.t.t.t.t.",
"t.t.t.t.t.t.t.t.t.t.t.t.t.t.t.t.t.t.t.t.t.t.t.t.t.t.t.t.t.t.t.t.t.t.t.t.t.t.t.t.t.t.t.t.t.t.t.t.t.t.t.t.t.t.t.t.t.t.t.t.t.t.t.t.",
"t.t.t.t.t.t.t.t.t.t.t.t.t.t.t.t.t.t.t.t.t.t.t.t.t.t.t.t.t.t.t.t.t.t.t.t.t.t.t.t.t.t.t.t.t.t.t.t.t.t.t.t.t.t.t.t.t.t.t.t.t.t.t.t.",
"t.t.t.t.t.t.t.t.t.t.t.t.t.t.t.t.t.t.t.t.t.t.t.t.t.t.t.t.t.t.t.t.t.t.t.t.t.t.t.t.t.t.t.t.t.t.t.t.t.t.t.t.t.t.t.t.t.t.t.t.t.t.t.t.",
"t.t.t.t.t.t.t.t.t.t.t.t.t.t.t.t.t.t.t.t.t.t.t.t.t.t.t.t.t.t.t.t.t.t.t.t.t.t.t.t.t.t.t.t.t.t.t.t.t.t.t.t.t.t.t.t.t.t.t.t.t.t.t.t.",
"t.t.t.t.t.t.t.t.t.t.t.t.t.t.t.t.t.t.t.t.t.t.t.t.t.t.t.t.t.t.t.t.t.t.t.t.t.t.t.t.t.t.t.t.t.t.t.t.t.t.t.t.t.t.t.t.t.t.t.t.t.t.t.t.",
"t.t.t.t.t.t.t.t.t.t.t.t.t.t.t.t.t.t.t.t.t.t.t.t.t.t.t.t.t.t.t.t.t.t.t.t.t.t.t.t.t.t.t.t.t.t.t.t.t.t.t.t.t.t.t.t.t.t.t.t.t.t.t.t.",
"t.t.t.t.t.t.t.t.t.t.t.t.t.t.t.t.t.t.t.t.t.t.t.t.t.t.t.t.t.t.t.t.t.t.t.t.t.t.t.t.t.t.t.t.t.t.t.t.t.t.t.t.t.t.t.t.t.t.t.t.t.t.t.t.",
"t.t.t.t.t.t.t.t.t.t.t.t.t.t.t.t.t.t.t.t.t.t.t.t.t.t.t.t.t.t.t.t.t.t.t.t.t.t.t.t.t.t.t.t.t.t.t.t.t.t.t.t.t.t.t.t.t.t.t.t.t.t.t.t.",
"t.t.t.t.t.t.t.t.t.t.t.t.t.t.t.t.t.t.t.t.t.t.t.t.t.t.t.t.t.t.t.t.t.t.t.t.t.t.t.t.t.t.t.t.t.t.t.t.t.t.t.t.t.t.t.t.t.t.t.t.t.t.t.t.",
"t.t.t.t.t.t.t.t.t.t.t.t.t.t.t.t.t.t.t.t.t.t.t.t.t.t.t.t.t.t.t.t.t.t.t.t.t.t.t.t.t.t.t.t.t.t.t.t.t.t.t.t.t.t.t.t.t.t.t.t.t.t.t.t.",
"t.t.t.t.t.t.t.t.t.t.t.t.t.t.t.t.t.t.t.t.t.t.t.t.t.t.t.t.t.t.t.t.t.t.t.t.t.t.t.t.t.t.t.t.t.t.t.t.t.t.t.t.t.t.t.t.t.t.t.t.t.t.t.t.",
"t.t.t.t.t.t.t.t.t.t.t.t.t.t.t.t.t.t.t.t.t.t.t.t.t.t.t.t.t.t.t.t.t.t.t.t.t.t.t.t.t.t.t.t.t.t.t.t.t.t.t.t.t.t.t.t.t.t.t.t.t.t.t.t.",
"t.t.t.t.t.t.t.t.t.t.t.t.t.t.t.t.t.t.t.t.t.t.t.t.t.t.t.t.t.t.t.t.t.t.t.t.t.t.t.t.t.t.t.t.t.t.t.t.t.t.t.t.t.t.t.t.t.t.t.t.t.t.t.t.",
"t.t.t.t.t.t.t.t.t.t.t.t.t.t.t.t.t.t.t.t.t.t.t.t.t.t.t.t.t.t.t.t.t.t.t.t.t.t.t.t.t.t.t.t.t.t.t.t.t.t.t.t.t.t.t.t.t.t.t.t.t.t.t.t.",
"t.t.t.t.t.t.t.t.t.t.t.t.t.t.t.t.t.t.t.t.t.t.t.} { { { { | ) t.t.t.t.t.t.t.t.t.t.t.t.t.t.t.t.t.t.t.t.t.t.t.t.t.t.t.t.t.t.t.t.t.t.",
"t.t.t.t.t.t.t.t.t.t.t.t.t.t.t.t.t.t.t.t.t.t.} { / Y Y Y T ^ _ t.t.t.t.t.t.t.t.t.t.t.t.t.t.t.t.t.t.t.t.t.t.t.t.t.t.t.t.t.t.t.t.t.",
"t.t.t.t.t.t.t.t.t.t.t.t.t.t.t.t.t.t.t.t.t.} O./ Y Z Z Z Z A ! t.t.t.t.t.t.t.t.t.t.t.t.t.t.t.t.t.t.t.t.t.t.t.t.t.t.t.t.t.t.t.t.t.",
"t.t.t.t.t.t.t.t.t.t.t.t.t.t.t.t.t.t.t.t.` O.X.Z Z V C o.V C P t.t.t.t.t.t.t.t.t.t.t.t.t.t.t.t.t.t.t.t.t.t.t.t.t.t.t.t.t.t.t.t.t.",
"t.t.t.t.t.t.t.t.t.t.t.t.t.t.t.t.t.t.t.` O.X.A Z Z V C 6./ K K t.t.t.t.t.t.t.t.t.t.t.t.t.t.t.t.t.t.t.t.t.t.t.t.t.t.t.t.t.t.t.t.t.",
"t.t.t.t.t.t.t.t.t.t.t.t.t.t.t.t.t.t.t.` O.X.Y Z V o.9.P.R.<.4 t.t.t.t.t.t.t.t.t.t.t.t.t.t.t.t.t.t.t.t.t.t.t.t.t.t.t.t.t.t.t.t.t.",
"t.t.t.t.t.t.t.t.t.t.t.t.t.t.t.t.t.t.t.` O.Y Z V N +.G.i F.4.u t.t.t.t.t.t.t.t.t.t.t.t.t.t.t.t.t.t.t.t.t.t.t.t.t.t.t.t.t.t.t.t.t.",
"t.t.t.t.t.t.t.t.t.t.t.t.t.t.t.t.t.t._ { X.Z Z Z 5 +.P.S.P.7.U t.t.t.t.t.t.t.t.t.t.t.t.t.t.t.t.t.t.t.t.t.t.t.t.t.t.t.t.t.t.t.t.t.",
"t.t.t.t.t.t.t.t.t.t.t.t.t.t.t.t.t.t.[ X.T Z Z Z T <.I.I.D.&.P t.t.t.t.t.t.t.t.t.t.t.t.t.t.t.t.t.t.t.t.t.t.t.t.t.t.t.t.t.t.t.t.t.",
"t.t.t.t.t.t.t.t.t.t.t.t.t.t.t.t.t.t.] ~ Z C Z Z :.0.I.8.L 6 P t.t.t.t.t.t.t.t.t.t.t.t.t.t.t.t.j t.t.t.t.t.t.t.t.t.t.t.t.t.t.t.t.",
"t.t.t.t.t.t.t.t.t.t.t.t.t.t.t.t.t.t.P Z V 7 R Y 7.I.G.K , N P t.t.t.t.t.t.t.t.t.t.t.t.t.t.t.w.n.e.t.t.t.t.t.t.t.t.t.t.t.t.t.t.t.",
"t.t.t.t.t.t.t.t.t.t.t.t.t.t.t.t.t.t.[ ^ l..X X$.I ^ P V t.U U t.t.t.t.t.t.t.t.t.t.t.t.t.t.t.t.j.t.t.t.t.t.t.t.t.t.t.t.t.t.t.t.t.",
"t.t.t.t.t.t.t.t.t.t.t.t.t.t.t.t.t.t.R H.{.@XoX_.v.L t.t.u d t.t.t.t.t.t.t.t.t.t.t.t.t.t.t.h z.f.t.t.t.t.t.t.t.t.t.t.t.t.t.t.t.t.",
"t.t.t.t.t.t.t.t.t.t.t.t.t.t.t.t.t.t.b._.@X+X+X#X).c.t.t.t.t.t.t.t.t.t.t.t.t.t.t.t.t.t.t.t.#.x.y.t.t.t.t.t.t.t.t.t.t.t.t.t.t.t.t.",
"t.t.t.t.t.t.t.t.t.t.t.t.t.t.t.t.E E  X#XOXOX@XXXXX(.t.t.t.t.t.t.t.t.t.t.t.t.t.t.t.t.t.t.w.i.a.t.t.t.t.t.t.t.t.t.t.t.t.t.t.t.t.t.",
"t.t.t.t.t.t.t.t.t.t.t.t.t.t.t.E -.-.[.#XoX|.XXU.!./.t.t.t.t.t.t.t.t.t.t.t.t.t.t.t.t.t.t.d.n.a.t.t.t.t.t.t.t.t.t.t.t.t.t.t.t.t.t.",
"t.t.t.t.t.t.t.t.t.t.t.t.t.t.t.E -.-.[.@X@X.XG.L.W.J.t.t.t.t.t.t.t.t.t.t.t.t.t.t.t.t.t.t.i.a.t.t.t.t.t.t.t.t.t.t.t.t.t.t.t.t.t.t.",
"t.t.t.t.t.t.t.t.t.t.t.t.t.t.t.' -.;.[.@X@XOX}.P.L.I.J.t.t.t.t.t.t.t.t.t.t.t.t.t.t.t.t.f.x.i.t.t.t.t.t.t.t.t.t.t.t.t.t.t.t.t.t.t.",
"t.t.t.t.t.t.t.t.t.t.t.t.t.t.t.E -.Q ).OX@X@X@X].R.L.W.S.S.3.*.S.S.f t.t.t.t.t.t.t.t.t.f.a.e.t.t.t.t.t.t.t.t.t.t.t.t.t.t.t.t.t.t.",
"t.t.t.t.t.t.t.t.t.t.t.t.t.t.t.E =.b ).OX@X@X@X@XQ.4.D.L.E.Z.A.W.R.l.,.y.y.y.y.u.u.y.y.k.h t.t.t.t.t.t.t.t.t.t.t.t.t.t.t.t.t.t.t.",
"t.t.t.t.t.t.t.t.t.t.t.t.t.t.t.E =.b ).@XOX+X+X XM.t.t.5.G.Y.Y.U.K.U.T.m.M.M.C.V.V.V.V.B.j.i.y.t.t.t.t.t.t.t.t.t.t.t.t.t.t.t.t.t.",
"t.t.t.t.t.t.t.t.t.t.t.t.t.t.t.q.n v ^.oXoXOX|.r.q t.t.t.t.>.f.g.j.c.z.j.f.x._..X.X.X.X.X.X.X_.t.t.t.t.t.t.t.t.t.t.t.t.t.t.t.t.t.",
"t.t.t.t.t.t.t.t.t.t.t.t.t.t.t.q.v v p ~.OX.Xj 8 # w t.[ O.+.%.%.%.%.%.%.%.%.1.2.2.2.2.2.2.2.1.| { ) t.t.t.t.t.t.t.t.t.t.t.t.t.t.",
"t.t.t.t.t.t.t.t.t.t.t.t.t.t.t.q.x x = a s.y.8   O # 9 R Y T Y T T T T T T T T T T T T T T T T T A s t.t.t.t.t.t.t.t.t.t.t.t.t.t.",
"t.t.t.t.t.t.t.t.t.t.t.t.t.t.t.w.x x = X X X O O O O $ , , 7 N 6 6 6 6 6 N 6 N B 6 6 6 6 N N N N P t.t.t.t.t.t.t.t.t.t.t.t.t.t.t.",
"t.t.t.t.t.t.t.t.t.t.t.t.t.t.t.q.x x = X $ O O O O $ O + X - 5 , 5 5 5 5 5 5 , 5 5 5 5 5 5 5 , 5 t.t.t.t.t.t.t.t.t.t.t.t.t.t.t.t.",
"t.t.t.t.t.t.t.t.t.t.t.t.t.t.t.t.c J - + X O O O O O O O X 5 Z Z Z Z Z Z Z Z Z Z Z Z Z Z Z Z V Y t.t.t.t.t.t.t.t.t.t.t.t.t.t.t.t.",
"t.t.t.t.t.t.t.t.t.t.t.t.t.t.t.t.g c.f q + + + + X + X + X 3 Z Z Z Z Z Z Z Z Z Z Z Z Z Z Z Z Z Z t.t.t.t.t.t.t.t.t.t.t.t.t.t.t.t.",
"t.t.t.t.t.t.t.t.t.t.t.t.t.t.t.t.t.h k.$.: : : ; : : : : ; B Z Z Z ........................Z Z Z t.t.t.t.t.t.t.t.t.t.t.t.t.t.t.t.",
"t.t.t.t.t.t.t.t.t.t.t.t.t.t.t.t.t.t.>.@.l l l l l l l l l S Z Z Z ........................Z Z Z t.t.t.t.t.t.t.t.t.t.t.t.t.t.t.t.",
"t.t.t.t.t.t.t.t.t.t.t.t.t.t.t.t.t.t.t.s H H @.@.W G G G G Z Z Z Z ........................Z Z I t.t.t.t.t.t.t.t.t.t.t.t.t.t.t.t.",
"t.t.t.t.t.t.t.t.t.t.t.t.t.t.t.t.t.t.t.t.t.t.h.x.>.t.t.t.w.i Z Z Z ........................Z Z Z t.t.t.t.t.t.t.t.t.t.t.t.t.t.t.t.",
"D D D D D D D D D D D D D D D D D D D D D D N.M.D D D D D D Z Z Z ........................A Z Z D D D D D D D D D D D D D D D D ",
"D D M M M M M M M M M M M M M M M M M M M M N.M.m m m m m m Z Z Z ........................Z Z Z m m m m m m m m m m m m m m D D ",
"D D M M M M M M M M M M M M M M M M M M M M N.M.m m m m m m Z Z Z ........................V Z Z m m m m m m m m m m m m m m D D ",
"D D M M M M M M M M M M M M M M M M M B M a.m.M.j.m m m m m Z Z Z ........................Z A V m m m m m m m m m m m m m m D D ",
"D D M M M M M M M M M M M M M M M d.h.j.h.h.j.d.k.h.j.k.m m Z Z Z ........................Z A A m m m m m m m m m m m m m m D D ",
"D D M M M M M M M M M M M M M M @ # r e # 8 y w # w y & @ 3 V V V V V V V V V V C Z Z C V V Z C m m m m m m m m m m m m m m D D ",
"D D D D D D D D D D D D D D D D . . 0 & . o w @ . @ w o . * < < < < 1 1 < < < < 1 1 < < < < 1 1 1 1 D D D D D D D D D D D D D D "
};
