/* XPM */
static char *result[] = {
/* columns rows colors chars-per-pixel */
"64 64 164 2 ",
"   c #657E94",
".  c #9D9D9D",
"X  c #DFDFDF",
"o  c #DDDDDD",
"O  c gainsboro",
"+  c gray87",
"@  c gray90",
"#  c #E7E7E7",
"$  c #E6E6E6",
"%  c #E2E2E2",
"&  c #D0D0D0",
"*  c gray77",
"=  c gray76",
"-  c #C3C3C3",
";  c gray79",
":  c #C6C6C6",
">  c gray68",
",  c #B2B2B2",
"<  c #A2A2A2",
"1  c gray73",
"2  c #7EAFFF",
"3  c #85B4F6",
"4  c #8BB3EB",
"5  c #85AFF5",
"6  c #82B1F8",
"7  c #8CAAE2",
"8  c gray86",
"9  c #87A8EB",
"0  c #91A4DA",
"q  c #8AA4E2",
"w  c #8FA9DC",
"e  c #89B6E8",
"r  c #94ACD4",
"t  c #92ABDB",
"y  c #95AACF",
"u  c #8DB4E4",
"i  c #91B5E1",
"p  c #92BDE2",
"a  c #8CB6F1",
"s  c #8BBCF3",
"d  c #94B2DB",
"f  c #96B4D6",
"g  c #98B6D6",
"h  c #C1C1C1",
"j  c #94BDDD",
"k  c #DADADA",
"l  c #9BB4CE",
"z  c #98AFCF",
"x  c #93C0E4",
"c  c #94C4E4",
"v  c #8AC4F5",
"b  c #99B9D6",
"n  c #A4CCC5",
"m  c #94C5E4",
"M  c #96C3E6",
"N  c #94CAE4",
"B  c #C4A9BB",
"V  c #95CAE0",
"C  c #A7BBCA",
"Z  c #9BBECF",
"A  c #94CCE4",
"S  c #94CCE0",
"D  c #8ECBF1",
"F  c #9EC3CF",
"G  c #9BCDDB",
"H  c #99CCE0",
"J  c #C5C5C5",
"K  c #9DC5D1",
"L  c #98CCE0",
"P  c #95C0DD",
"I  c #99D1E0",
"U  c #9BD1DD",
"Y  c #92D3F1",
"T  c #99C5DD",
"R  c #9FC9CF",
"E  c #98CFE0",
"W  c #9ACEE0",
"Q  c #B4ACB5",
"!  c #A0C9CE",
"~  c #B7A4B3",
"^  c #BAA2AD",
"/  c #9AD1E0",
"(  c #A0CAD1",
")  c #9FC9D1",
"_  c #9BD6E0",
"`  c #B7A4AF",
"'  c #C2B1C5",
"]  c #9ED3D6",
"[  c #96DCE3",
"{  c #A1C4CB",
"}  c #A0CFD6",
"|  c #AFB1BB",
" . c #9DDDDC",
".. c #B7A8AC",
"X. c #9EE0DC",
"o. c #BD9CA8",
"O. c #A0D3CD",
"+. c #7C8252",
"@. c #8DA48D",
"#. c #9CB7A5",
"$. c #8FA27C",
"%. c #94A886",
"&. c #949886",
"*. c #8D9575",
"=. c #7C7A4A",
"-. c #676B3A",
";. c #7E7449",
":. c #7A6B45",
">. c #6C6337",
",. c #766B42",
"<. c #858457",
"1. c #94CBA5",
"2. c #87A87D",
"3. c #72723E",
"4. c #827A55",
"5. c #736B3E",
"6. c #767444",
"7. c #969C7D",
"8. c #AFC298",
"9. c #727B48",
"0. c #79623C",
"q. c #73653D",
"w. c #6B733B",
"e. c #67703A",
"r. c #6C663A",
"t. c #6D793E",
"y. c #7B935C",
"u. c #95A07C",
"i. c #83724A",
"p. c #7B7245",
"a. c #947A5B",
"s. c #734E36",
"d. c #6C6B39",
"f. c #8DB386",
"g. c #888B66",
"h. c #7B5B3C",
"j. c #80A16A",
"k. c #8F7D55",
"l. c #676B37",
"z. c #74814A",
"x. c #826547",
"c. c #88794E",
"v. c #99825C",
"b. c #80A167",
"n. c #94865B",
"m. c #9B9064",
"M. c #715C3B",
"N. c #A08D66",
"B. c #7C6545",
"V. c #84804B",
"C. c #846C49",
"Z. c #796B3F",
"A. c #82795C",
"S. c #6D5C37",
"D. c #725636",
"F. c #745539",
"G. c #8D7353",
"H. c #8D6F50",
"J. c #7B5C42",
"K. c #856648",
"L. c sienna",
"P. c #86482F",
"I. c #884529",
"U. c white",
/* pixels */
"                                                                                                                                ",
". . . . . . . . . . . . . . . . . . . . . . . . . . . . . . . . . . . . . . . . . . . . . . . . . . . . . . . . . . . . . . . . ",
"X X o o o O o o o o o o o o o o + o o + + o + + o o o X o o o o X + + + o o + + + o o o o o o o o O O O o O o O o o o X o o X X ",
"X @ # # # $ $ $ $ $ $ $ $ $ % $ # % % # # % % @ $ $ $ # $ $ # $ % @ @ # # # # % # $ # % @ @ @ @ $ @ $ @ $ $ $ @ $ $ # # # # $ X ",
"$ & * * * * * * = * = = = * = = - - - - - - - - * - * * * * = ; % % ; - * - - - - - - - - - - - * = = * * = * * - - - : - - & @ ",
"$ * > , , , , , , , , , , , , , , , , , , , , , , , , , , , > , X @ , < 1 , , , , , , , , , , , , , , , , , , , , , , , , > - $ ",
"$ = q q q 7 7 e e e u u u u 7 7 7 7 7 u u u p p p x x x c c c 1 + X 1 q q q 7 e D D v s e e e e e e e e e s e v v v v v v < * $ ",
"@ = q q q q e s s e u 7 7 7 7 7 7 7 7 u u u p p p p x x x c c 1 k o 1 q q q q e D D v e e e e e e e e e e e e v v v v v v < = $ ",
"@ h e e e 7 e v v s u 7 7 7 7 7 7 7 7 7 u p p p p p p p x x c 1 8 o 1 e e 7 e v D D D e e e e e e e e e e e s v v v v v v < = $ ",
"@ = e e e e v v v v v e u 7 7 7 7 q q q u p j j j p p p p x c 1 k o 1 e e e e v v v D v e e e e e e e e e e s s s v v v v < = % ",
"@ h e e e s v v v v v v e u u 7 7 7 q q u p j j j j j p p x c 1 k o 1 e e e v v v v v v D s e e e e e e e e e e e e s v v < = # ",
"@ h e e e v v v v v v v v s e u 7 7 7 7 u u i i i j j p p x x 1 k o 1 e e e s v v v v v v v s e e e e e e e e e e e e e v < = % ",
"@ h e e s s v v v v v v v v s e 7 7 7 u u u d d i i p p p p x 1 k o 1 e e s s s s s v v v v v v e e e e e e e e e e e s v < = # ",
"@ h e s v v v v v v v v v v v v e e 7 e u w w w d i p p p p p 1 k o 1 e e s s s s s s s s v v v v e e e e e e e e e e s v < n # ",
"$ = s s s s s s s s s s s v v v v e e e u y w u p p p p p p p 1 k o 1 e e e e e s e e e s s s v v v e e e e u e e e e s v < = $ ",
"$ * s s s s s s s s s s s s s v v v s e u u u p p p p p p p p 1 o o 1 e e e e e e e e e e s s s s s v s e e e e e e e s v < * $ ",
"@ = s s s s s s s s s s s s s s v v v v e e u u u p p p p p p 1 8 + 1 e e e e e e e e e e e e s s s s v v e e e e e e e s < = $ ",
"$ = v s s s s s s s s s s s v v v v v v v e u u u u u u p p p 1 8 X 1 e e e e e e e e e e e s s s s v v v D e e e e e e x < = $ ",
"@ = v v v v s s s s v v v v v v v v v v v v e u u u u e p x x 1 8 + 1 s s s e e e e e s s s s s s s s v v D D v e e e e x < = % ",
"@ h v v v v v s s v v v v v v v v v v v v v v v e u u e e x x 1 k o 1 s s a s s e e s s s s s s s s s s v D D D D e e e s < = # ",
"@ = v v v v v v v v v v v v v v v v v v v v v v v e e e e x x 1 8 o 1 s s s s s s e s s s s s s s s s s v D D D D D e e e < = % ",
"@ h v v v v v v v v v v v v v v v v v v v v v v v s s v e x x 1 k o 1 s s s s s s s s s s s s s s s s s v D D D D D D D D < = # ",
"@ h v v v v v v v v v v v v v v v v v s v v v v v v v v x x x 1 k o 1 s s s s s s s s s s s s s s s s s D D D D D D D D D < n # ",
"@ h e e e v v v v v v v v v v v v v v s s v v v v v v v s x x 1 k o 1 w u e s s s s s s s s s s s s s v D D D D D D D D D < B $ ",
"@ h e e e e e v v v v v v v v v v v v s s v v v v v v v D x c 1 k o 1 w d i j p x s s s s s s s s s s v D D D D D D D D D < = $ ",
"@ h D D D D D D D v v v v v v v v v s s v v v s v v v v D c D 1 k o 1 x c m m m N N c D D s s s s s s D D D D D D D D D D < C @ ",
"$ n D D D D v v v v v v v s s s v v s v v v s v v v v v v D D 1 k o 1 x c m m N N N m m m D D D v v s D D D D D D D D D D < - $ ",
"$ = D D D D D v v v v v v s s s s s s s v s v v v v v v v v D 1 k o 1 x c c m m m m m m m D D D D D D D D D D D D D D D D < h $ ",
"$ B x D D D D D D v v v v s s s s s s s s s v v v v v v v v D 1 8 8 1 p x c m m m m m m m m D D D D D D D D D D D D D D D < B # ",
"# J x D D D D D D D v v v s s s s s s s e s v v v v v v v v e 1 8 + 1 p p x c m m m m c c m D D D D D D D v D D D D D D D < - # ",
"# h D D D D D D D D v v v s s s s s s e s s D D v v v v v v e 1 8 8 1 m x x c m m m m c c c D D D D D D v v D D D D D D D < - @ ",
"@ h Y D D D D D D D v v D e s s s s s s s D D D D v v v v D x 1 8 + 1 Y m c c m m m m c c c x D D D D v v D D Y D D D D D < h @ ",
"# B Y Y D D D D D D D D D e s s s s s s D D D D D D v v D D D 1 8 8 1 Y Y m c m m m m c c c p D D D D v D D Y Y D D D D D < n # ",
"# n Y Y Y D D D D D D D D e s s s s s D D D D D D D D D D D D 1 8 8 1 Y Y Y m m m m m c c c p D D D v D Y Y Y Y Y D D D D < B # ",
"# J Y Y Y D D D D D D D D e e s s s D D D D D D D D D D D D D 1 8 + 1 Y Y Y D m m m m m c c p e D D D D Y Y Y Y Y Y D D D < : # ",
"# - Y Y Y Y D D D D D D D v e s v D D D D D D D D D D D D D D 1 8 8 1 Y Y Y Y D m m m m m m c e D D D D Y Y Y Y Y Y D D D < = # ",
"@ h Y Y Y Y Y D D D D D D D 7 s D D D D D D D D D D D D D D D 1 k O 1 Y Y Y Y Y A m m m m m c e D D D D D Y Y Y Y Y Y D D < h @ ",
"@ h Y Y Y Y Y Y D D v e e 7 e s v D D D D D D D D D D D D D D 1 k k 1 Y 1 1 1 1 1 1 m m x x e x D D D D D Y Y Y Y Y Y Y D < h @ ",
"@ h Y Y Y Y Y Y Y v s e e e e e v v v v D D D D D D D D D D D 1 k O 1 Y Y Y Y Y Y Y D D e e x m m D D D Y Y Y Y Y Y Y Y D < h @ ",
"@ h D D D Y Y Y Y Y v e e e e e v v v v D D D D D D D D D D D 1 k O 1 Y Y Y Y Y Y Y Y D e m m m m D D D D D Y D Y D D D Y < h @ ",
"@ h D D D D Y Y Y Y Y e e e e e e v v s v v v v D D D D D D D 1 k + 1 Y Y Y Y Y Y Y Y Y D D m m m D D D D D Y D D D D D D < h @ ",
"@ h Y Y Y Y Y Y Y Y Y D x e e e e e e e e v D v D D D D D D D 1 k O 1 Y Y Y Y Y Y Y Y Y Y N m m m m m D N D D D Y D D D D < h @ ",
"@ h Y Y Y Y Y Y Y Y Y Y D e e e e e e e e e e v D D D D D D D 1 k + 1 Y Y Y Y Y Y Y Y Y Y Y D D m m m D D D D D D D D D D < h @ ",
"@ h Y Y Y Y Y Y Y Y Y Y Y D s e e e u i e e e e e D D D D D D 1 O O 1 A Y Y Y Y Y Y Y Y Y Y Y D D D D D D D D D N p D D D < - @ ",
"@ h Y Y Y Y Y Y Y Y Y Y Y Y D e e e r r r e s e e e s D D D D 1 k O 1 A Y Y Y Y Y Y Y Y Y Y Y Y D D D Y Y Y D D m p p N Y < h @ ",
"@ = Y Y Y Y Y Y Y Y Y Y Y Y Y D e i r r r r d e e e e e v D D 1 O O 1 A Y Y Y Y Y Y Y Y Y Y Y Y D D D Y Y Y Y Y N j p p m < = @ ",
"$ = Y Y Y Y Y Y Y Y Y Y Y Y Y D e d d d r r r r w e e s v v v 1 O + 1 A Y Y Y Y Y Y Y Y Y Y Y Y D D Y Y Y Y Y Y Y N p m D < = $ ",
"@ = Y Y Y Y Y Y D D Y Y Y Y D s i d d d d d r r r d x v v v v 1 k O 1 A Y Y Y Y Y Y Y Y Y Y Y D D Y Y Y Y Y Y Y Y Y Y Y Y < = @ ",
"$ - Y Y Y D D D D D D Y Y D s u d d d d d d d r r r r i s v v 1 O 8 1 A Y Y Y Y Y Y Y Y Y Y D D D Y Y Y Y Y Y Y Y Y Y Y Y < = $ ",
"$ = Y Y D D D D D D D D D v s i d d d d d d d d d r r r r p v 1 8 + 1 A Y Y Y Y Y Y Y Y Y Y D D Y Y Y Y Y Y Y Y Y Y D D Y < = $ ",
"@ h Y Y Y Y D D D D D D D v u i d d d d d d d d d r r r r r d 1 8 8 1 A Y Y Y A D D Y Y D D D Y Y Y Y Y Y Y Y Y Y Y D D D < = @ ",
"@ h D Y Y Y D D D D m p p u r r r r d d d d d d r r r r r r r 1 8 + 1 A Y Y Y D A A A N x p p m N N N Y Y Y Y Y Y D D D D < - # ",
"@ h D Y Y Y D D D D x p e d r r y y r d d d d d r r r r r r r 1 8 8 1 A Y Y Y D A Y A m p p m m m p p N Y Y Y Y Y D D D D < - # ",
"@ h D Y Y Y D D D D D x p d r r y y y r d d d r r r r r r r r 1 k 8 1 N Y Y Y D D Y Y Y m p m m p p p m D Y Y Y D D D D D < - @ ",
"@ h D Y Y D D D D D D D p d r r y y y r d i d r r r r r r r r 1 k + 1 N Y Y Y A Y Y Y Y Y N m m p p p p N Y Y D D D D D D < h @ ",
"@ h D D Y D D D D D D N c p d r r y y y d i r r r r r r r r r 1 k 8 1 N A Y Y A Y Y Y Y Y Y D m p p p j j D Y D D D D D D < n # ",
"@ = D D Y D D D D D D m c x j r y y y y r d r r r r r r r r r 1 k O 1 N A Y Y Y Y Y Y Y Y Y Y Y m w w u u m D D D D D D D < B # ",
"$ = D D D D D D D D c x p j j j r y y y y r r r r r r r r d t 1 k k 1 N N Y Y Y Y Y A A A A D Y Y N u r w p D D D D D D D < : # ",
"@ = D D D D D m m p p p p j j j j d y y y r r r r r r d d d d 1 k O 1 N N A A A N N N N N A D D D Y D p r D D D D D D D D < = # ",
"$ - D D D D m m x p p p p j d d d d j r r r r r r d d d d d d 1 k O 1 N m N N N N N N N N N N D D D D Y D D D D D D D D D < h @ ",
"$ = D D D D m x x p p j j j d d d d d r r r r r d d d d d r r 1 O + 1 N N N N N N N N N N N N N N D D D D D D D D D D D D < h @ ",
"@ = D D D m m x p p j j j j d f f d r r r r r r r r r y y y y 1 k O 1 N N N N N m N N N N N N N N N D D D D D D D D D D D < h @ ",
"# * m m N m m p p p j j i i r r f f r r r r r r r y y y y y y 1 O + 1 c m N N m N N N m m m m m m N D D D D D D D D D D D < h @ ",
"$ * j u f r d d i d d d i d r r r r r r r r r r r r y y y y y 1 O O 1 j f f r f j p p p x m m m m m D D D D D D D D D D D < h @ "
};
