/* XPM */
static char *hero[] = {
/* columns rows colors chars-per-pixel */
"64 64 245 2 ",
"   c #161D1F",
".  c #2F2E1B",
"X  c #281C24",
"o  c #192F2E",
"O  c #242B2B",
"+  c #282827",
"@  c #382825",
"#  c #38342D",
"$  c #392C33",
"%  c #273834",
"&  c #383336",
"*  c #2B2D2B",
"=  c #1A2A1A",
"-  c #5A341B",
";  c #482A1A",
":  c #782F19",
">  c #571C23",
",  c #6D1922",
"<  c #482D24",
"1  c #473729",
"2  c #583826",
"3  c #4D2E33",
"4  c #673A29",
"5  c #621817",
"6  c #34531A",
"7  c #3E6C17",
"8  c #364825",
"9  c #294539",
"0  c #3A4537",
"q  c #355139",
"w  c #3D6820",
"e  c #68431A",
"r  c #78461A",
"t  c #765619",
"y  c #457716",
"u  c #476E1F",
"i  c #474534",
"p  c #5B463A",
"a  c #4E502E",
"s  c #664624",
"d  c #784B25",
"f  c #694739",
"g  c #754835",
"h  c #765238",
"j  c #6D5339",
"k  c #4D712D",
"l  c #75793B",
"z  c #583653",
"x  c #56374A",
"c  c #673C55",
"v  c #7A3D57",
"b  c #5D3562",
"n  c #753B68",
"m  c #14584D",
"M  c #284D44",
"N  c #2A5847",
"B  c #345743",
"V  c #324F40",
"C  c #0F6157",
"Z  c #296A54",
"A  c #326953",
"S  c #2B7859",
"D  c #327B59",
"F  c #336E4A",
"G  c #2A7D61",
"H  c #5C4A41",
"J  c #4D514F",
"K  c #614C44",
"L  c #655446",
"P  c #755641",
"I  c #695852",
"U  c #704A4F",
"Y  c #4F6B50",
"T  c #65725D",
"R  c #766554",
"E  c #6B5E61",
"W  c #7C4363",
"Q  c #63656B",
"!  c #7A6B66",
"~  c #7E766C",
"^  c #76777C",
"/  c #6C7470",
"(  c #8C3010",
")  c #A51914",
"_  c #8A460A",
"`  c #834919",
"'  c #8B501E",
"]  c #965013",
"[  c #AB5509",
"{  c #A95A16",
"}  c #B05507",
"|  c #B26710",
" . c #875528",
".. c #935724",
"X. c #895A37",
"o. c #925228",
"O. c #9D663B",
"+. c #897232",
"@. c #B76A28",
"#. c #A76A3A",
"$. c #B7733A",
"%. c #B36D3A",
"&. c #D45206",
"*. c #CB730C",
"=. c #D07C38",
"-. c #C77430",
";. c #823D6A",
":. c #8B3E6B",
">. c #B83E45",
",. c #804C5A",
"<. c #8B6346",
"1. c #986944",
"2. c #8E6C57",
"3. c #B97948",
"4. c #AD7450",
"5. c #87436C",
"6. c #874272",
"7. c #99467A",
"8. c #945764",
"9. c #A24E7E",
"0. c #81736C",
"q. c #877976",
"w. c #947F7B",
"e. c #B06360",
"r. c #CE7252",
"t. c #C1555A",
"y. c #4A850E",
"u. c #55871A",
"i. c #489713",
"p. c #52920F",
"a. c #6B9410",
"s. c #5AA719",
"d. c #62A818",
"f. c #76B61E",
"g. c #71AF1A",
"h. c #5F9920",
"j. c #71B921",
"k. c #68BA21",
"l. c #36885B",
"z. c #388949",
"x. c #348963",
"c. c #359769",
"v. c #2E8D6B",
"b. c #36A463",
"n. c #38A86A",
"m. c #39B76B",
"M. c #38AA72",
"N. c #3AB972",
"B. c #30A35D",
"V. c #478456",
"C. c #568C57",
"Z. c #4A9859",
"A. c #689454",
"S. c #7CAC5A",
"D. c #499865",
"F. c #57A264",
"G. c #49A167",
"H. c #799966",
"J. c #3DC56D",
"K. c #3DC872",
"L. c #3CD874",
"P. c #3AE677",
"I. c #5FDC69",
"U. c #8F910A",
"Y. c #AB9209",
"T. c #99A612",
"R. c #AF9030",
"E. c #A19B26",
"W. c #DE8102",
"Q. c #E08203",
"!. c #D8823C",
"~. c #EED13B",
"^. c #FDEB3D",
"/. c #87B258",
"(. c #9EB44E",
"). c #B4BD49",
"_. c #928777",
"`. c #A9866D",
"'. c #B88A67",
"]. c #929A42",
"[. c #C7834B",
"{. c #D98949",
"}. c #CA8759",
"|. c #D78E56",
" X c #D7925C",
".X c #E69353",
"XX c #E88F4E",
"oX c #F4A05F",
"OX c #D59263",
"+X c #C8986D",
"@X c #E39B65",
"#X c #C8A47F",
"$X c #F6AC71",
"%X c #ECA86D",
"&X c #A8C253",
"*X c #B8CC53",
"=X c #B4C24E",
"-X c #C6D651",
";X c #CDCA44",
":X c #E7DA43",
">X c #D9F04B",
",X c #A94B8A",
"<X c #B3528E",
"1X c #8B7985",
"2X c #C4539B",
"3X c #D65BA8",
"4X c #CD5AA6",
"5X c #E15EAE",
"6X c #E763B8",
"7X c #FC6CCC",
"8X c #FF70D5",
"9X c #949793",
"0X c #8C8C8B",
"qX c #B09C89",
"wX c #94A19A",
"eX c #9EAE8D",
"rX c #ACA299",
"tX c #B5A998",
"yX c #92ABA4",
"uX c #A8AAAA",
"iX c #B7B9B8",
"pX c #B1B2B0",
"aX c #8F9AA2",
"sX c #CBAD95",
"dX c #CBB4AA",
"fX c #E3AE80",
"gX c #F2C197",
"hX c #C9C1BC",
"jX c #ECCEB4",
"kX c #C9C9C7",
"lX c #DCD6CA",
"zX c #CED3D1",
"xX c #E2D8D6",
"cX c #EFCFCD",
"vX c #DEE9D0",
"bX c #EFE4D5",
"nX c #E1DFE1",
"mX c #E9E7E6",
"MX c #ECEBEB",
"NX c #EBE8E6",
"BX c #F4F4F4",
"VX c #489848",
"CX c #F9F9F5",
"ZX c #F4EFE8",
"AX c #DEE6EC",
/* pixels */
"VXVXVXVXVXVXVXVXVXVXVXVXVXVXVXVXVXVXVXVXVXVXVXVXVXVXVXVXVXVXVXVXVXVXVXVXVXVXVXVXVXVXVXVXVXVXVXVXVXVXVXVXVXVXVXVXVXVXVXVXVXVXVXVX",
"VXVXVXVXVXVXVXVXVXVXVXVXVXVXVXVXVXVXVXVXVXVXVXVXVXVXVXVXVXVXVXVXVXVXVXVXVXVXVXVXVXVXVXVXVXVXVXVXVXVXVXVXVXVXVXVXVXVXVXVXVXVXVXVX",
"VXVXVXVXVXVXVXVXVXVXVXVXVXVXVXVXVXVXVXVXVXVXVXVXVXVXVXVXVXVXVXVXVXVXVXVXVXVXVXVXVXVXVXVXVXVXVXVXVXVXVXVXVXVXVXVXVXVXVXVXVXVXVXVX",
"VXVXVXVXVXVXVXVXVXVXVXVXVXVXVXVXVXVXVXVXVXVXVXVXVXVXVXVXVXVXVXVXVXVXVXVXVXVXVXVXVXVXVXVXVXVXVXVXVXVXVXVXVXVXVXVXVXVXVXVXVXVXVXVX",
"VXVXVXVXVXVXVXVXVXVXVXVXVXVXVXVXVXVXVXVXVXVXVXVXVXVXVXVXVXVXVXVXVXVXVXVXVXVXVXVXVXVXVXVXVXVXVXVXVXVXVXVXVXVXVXVXVXVXVXVXVXVXVXVX",
"VXVXVXVXVXVXVXVXVXVXVXVXVXVXVXVXVXVXVXVXVXVXVXVXVXVXVXVXVXVXVXVXVXVXVXVXVXVXVXVXVXVXVXVXVXVXVXVXVXVXVXVXVXVXVXVXVXVXVXVXVXVXVXVX",
"VXVXVXVXVXVXVXVXVXVXVXVXVXVXVXVXVXVXVXVXVXVXVXVXVXVXVXVXVXVXVXVXVXVXVXVXVXVXVXVXVXVXVXVXVXVXVXVXVXVXVXVXVXVXVXVXVXVXVXVXVXVXVXVX",
"VXVXVXVXVXVXVXVXVXVXVXVXVXVXVXVXVXVXVXVXVXVXVXVXVXVXVXVXVXVXVXVXVXVXVXVXVXVXVXVXVXVXVXVXVXVXVXVXVXVXVXVXVXVXVXVXVXVXVXVXVXVXVXVX",
"VXVXVXVXVXVXVXVXVXVXVXVXVXVXVXVXVXVXVXVXVXVXVXVXVXVXVXVXVXVXVXVXVXVXVXVXVXVXVXVXVXVXVXVXVXVXVXVXVXVXVXVXVXVXVXVXVXVXVXVXVXVXVXVX",
"VXVXVXVXVXVXVXVXVXVXVXVXVXVXVXVXVXVXVXVXVXVXVXVXVXVXVXVXVXVXVXVXVXVXVXVXVXVXVXVXVXVXVXVXVXVXVXVXVXVXVXVXVXVXVXVXVXVXVXVXVXVXVXVX",
"VXVXVXVXVXVXVXVXVXVXVXVXVXVXVXVXVXVXVXVXVXVXVXVXVXVXVXVXVXVXVXVXVXVXVXVXVXVXVXVXVXVXVXVXVXVXVXVXVXVXVXVXVXVXVXVXVXVXVXVXVXVXVXVX",
"VXVXVXVXVXVXVXVXVXVXVXVXVXVXVXVXVXVXVXVXVXVXVXVXVXVXVXVXVXBXMXMXMXMXMXMXVXVXVXVXVXVXVXVXVXVXVXVXVXVXVXVXVXVXVXVXVXVXVXVXVXVXVXVX",
"VXVXVXVXVXVXVXVXVXVXVXVXVXVXVXVXVXVXVXVXVXVXVXVXVXVXVXVXVXpXQ / ^ ^ Q 9XVXVXVXVXVXVXVXVXVXVXVXVXVXVXVXVXVXVXVXVXVXVXVXVXVXVXVXVX",
"VXVXVXVXVXVXVXVXVXVXVXVXVXVXVXVXVXVXVXVXVXVXVXVXVXVXVXVXiXT a q a a 8 Y uXBXVXVXVXVXVXVXVXVXVXVXVXVXVXVXVXVXVXVXVXVXVXVXVXVXVXVX",
"VXVXVXVXVXVXVXVXVXVXVXVXVXVXVXVXVXVXVXVXVXVXVXVXVXVXCXiXT k y y u.u.u.u Y 0XnXVXVXVXVXVXVXVXVXVXVXVXVXVXVXVXVXVXVXVXVXVXVXVXVXVX",
"VXVXVXVXVXVXVXVXVXVXVXVXVXVXVXVXVXVXVXVXVXVXVXVXVXCXkXT 7 y.p.s.g.j.j.s.y 8 eXvXBXVXVXVXVXVXVXVXVXVXVXVXVXVXVXVXVXVXVXVXVXVXVXVX",
"VXVXVXVXVXVXVXVXVXVXVXVXVXVXVXVXVXVXVXVXVXVXVXVXVXzXQ y y.p.s.g.T.j.j.j.j.h.p.A.iXMXVXVXVXVXVXVXVXVXVXVXVXVXVXVXVXVXVXVXVXVXVXVX",
"VXVXVXVXVXVXVXVXVXVXVXVXVXVXVXVXVXVXVXVXVXVXVXVXzXH.2 U.a.a.i.d.j.j.k.f.T.T.a.y k _.ZXVXCXVXVXVXVXVXVXVXVXVXVXVXVXVXVXVXVXVXVXVX",
"VXVXVXVXVXVXVXVXVXVXVXVXVXVXVXVXVXVXVXVXVXVXVXpXQ 9 s | W.a.p.p.d.j.s.a.Y.*.t 6 w u.T E ^ pXVXVXVXVXVXVXVXVXVXVXVXVXVXVXVXVXVXVX",
"VXVXVXVXVXVXVXVXVXVXVXVXVXVXVXVXVXVXhXpXsXrXiX1Xz O . _ | Y.U.T.Y.Y.T.Y.| _ ; 8 7 y.. @ K 0.uXBXVXVXVXVXVXVXVXVXVXVXVXVXVXVXVXVX",
"VXVXVXVXVXVXVXVXVXVXVXVXVXVXVXVXVXVX1X<.4.j E ,X,Xc O . r | *.*.Q.Q.Q.*._ ; + 8 w y.o f 4.1.J mXVXVXVXVXVXVXVXVXVXVXVXVXVXVXVXVX",
"VXVXVXVXVXVXVXVXVXVXVXVXVXVXVXVXVXVXw.4.OX<.& <X5X,Xc b v ] [ } } [ [ [ g z n U a 6 = P OXOX<.NXVXVXVXVXVXVXVXVXVXVXVXVXVXVXVXVX",
"VXVXVXVXVXVXVXVXVXVXVXVXVXVXVXVXVXVXq.4.OX<.& 7.6X6X3X3X,X3 . < < @ . 1 7.3X6X<XU     P }.4.R NXVXVXVXVXVXVXVXVXVXVXVXVXVXVXVXVX",
"VXVXVXVXVXVXVXVXVXVXVXVXVXVXVXVXVXVXq.X.=.3.<.,.9.3X8X7X3X,Xn ;.:.;.n ,X4X7X8X4Xz O L r.[.O.I NXVXVXVXVXVXVXVXVXVXVXVXVXVXVXVXVX",
"VXVXVXVXVXVXVXVXVXVXVXVXVXVXVXVXVXVX~ d -.{.3.j U ,X6X3X4X2X<X2X2X2X<X<X3X3X6X<Xc 1 4.{.!.' L MXVXVXVXVXVXVXVXVXVXVXVXVXVXVXVXVX",
"VXVXVXVXVXVXVXVXVXVXVXVXVXVXVXVXVXVX! : | $.2.,.W n 6.;.:.:.7.,X7.,X7.7.:.n ;.:.6.8.2.$.@._ p mXVXVXVXVXVXVXVXVXVXVXVXVXVXVXVXVX",
"VXVXVXVXVXVXVXVXVXVXVXVXVXVXVXVXVXVX_. ...r z ,X<Xc @ & $ & & * $ * $ $ & $ O x ,X<Xx s ] ..R NXVXVXVXVXVXVXVXVXVXVXVXVXVXVXVXVX",
"VXVXVXVXVXVXVXVXVXVXVXVXVXVXVXVXVXVXBXqXe r g 5.v 4 j H.9XwX_.e - s 2.9XwXS.L c U :.d r e 2.NXVXVXVXVXVXVXVXVXVXVXVXVXVXVXVXVXVX",
"VXVXVXVXVXVXVXVXVXVXVXVXVXVXVXVXVXVXVXNXqXs ..4 -  .[.lXmXxXdX$.{ @.#XlXNXvX+Xo.4 - ..r `.xXVXVXVXVXVXVXVXVXVXVXVXVXVXVXVXVXVXVX",
"VXVXVXVXVXVXVXVXVXVXVXVXVXVXVXVXVXVXVXVXmXqXh r _ {  XZXAXpX`.|.XX{.'.uXzXCX%X| _ e d `.lXVXVXVXVXVXVXVXVXVXVXVXVXVXVXVXVXVXVXVX",
"VXVXVXVXVXVXVXVXVXVXVXVXVXVXVXVXVXVXVXVXVXmXp r [ | |.bXpXJ 4 |.$X@Xh J aXNX%X-.[ r < hXVXVXVXVXVXVXVXVXVXVXVXVXVXVXVXVXVXVXVXVX",
"VXVXVXVXVXVXVXVXVXVXVXVXVXVXVXVXVXVXVXVXVXzX& ; r { !.gX_.& 1  X$X@Xj + ~ gXXX| ` 2 X pXCXVXVXVXVXVXVXVXVXVXVXVXVXVXVXVXVXVXVXVX",
"VXVXVXVXVXVXVXVXVXVXVXVXVXVXVXVXVXVXVXVXzXY 9 % 1 d -.XX4.f P OX$X%X<.p O.XX-...1 % % M yXVXVXVXVXVXVXVXVXVXVXVXVXVXVXVXVXVXVXVX",
"VXVXVXVXVXVXVXVXVXVXVXVXVXVXVXVXVXVXVXVXzXS B.x.N i r -.!.[.}.%X$X$XOX}.!.-.' i B S b.S yXVXVXVXVXVXVXVXVXVXVXVXVXVXVXVXVXVXVXVX",
"VXVXVXVXVXVXVXVXVXVXVXVXVXVXVXVXVXVXVXVXkXF J.M.x.9 # r @.r. X XoXoX@X}.@...2 9 S n.m.z.H.dXVXVXVXVXVXVXVXVXVXVXVXVXVXVXVXVXVXVX",
"VXVXVXVXVXVXVXVXVXVXVXVXVXVXVXVXVXVXVXZXtXa F c.c.S N 1 - j O.!.!.!.O.h 2 2 V S v.c.S k s 2.kXCXVXVXVXVXVXVXVXVXVXVXVXVXVXVXVXVX",
"VXVXVXVXVXVXVXVXVXVXVXVXVXVXVXVXVXVXMXqXr s $ N l.c.c.N % % i ' { ' s O o q D c.c.A $ 2 d s H mXVXVXVXVXVXVXVXVXVXVXVXVXVXVXVXVX",
"VXVXVXVXVXVXVXVXVXVXVXVXVXVXVXVXVXVX~ s d  .d 1 V D M.N.c.S q @ ; ; 8 A c.n.c.x.N 0 s `  .s p mXVXVXVXVXVXVXVXVXVXVXVXVXVXVXVXVX",
"VXVXVXVXVXVXVXVXVXVXVXVXVXVXVXVXVXVX! s ..X.s @ % Z n.K.K.m.l.q 9 9 D m.L.L.N.D % + 2  ...d K mXVXVXVXVXVXVXVXVXVXVXVXVXVXVXVXVX",
"VXVXVXVXVXVXVXVXVXVXVXVXVXVXVXVXVXVX! d 3.X.@ X % A c.M.N.K.J.n.B.b.m.K.P.L.G.x.% X * h $.O.I NXVXVXVXVXVXVXVXVXVXVXVXVXVXVXVXVX",
"VXVXVXVXVXVXVXVXVXVXVXVXVXVXVXVXVXVX0.X.{.1.p * % A v.v.c.J.L.P.P.P.L.K.K.J.M.G 9 + 1 1.[.3.I NXVXVXVXVXVXVXVXVXVXVXVXVXVXVXVXVX",
"VXVXVXVXVXVXVXVXVXVXVXVXVXVXVXVXVXVX0.X.{..X#.2 % Z c.x.x.n.N.P.P.P.J.M.c.c.n.Z % 1 1.|.XX#.L NXVXVXVXVXVXVXVXVXVXVXVXVXVXVXVXVX",
"VXVXVXVXVXVXVXVXVXVXVXVXVXVXVXVXVXCX! X.XX{.#.H Y C.S.S.C.A V.I.&XI.Z.A V.S./.C.Y i <.{.XX#.p mXVXVXVXVXVXVXVXVXVXVXVXVXVXVXVXVX",
"VXVXVXVXVXVXVXVXVXVXVXVXVXVXVXVXVXVX!  .!.O.i Z C.(.:X:X].i J ).>X;Xl 9 l ;X:X=XA.Z V X.r.@.p mXVXVXVXVXVXVXVXVXVXVXVXVXVXVXVXVX",
"VXVXVXVXVXVXVXVXVXVXVXVXVXVXVXVXVXVXiXsXsXf o m Y /.-X*X(.+.R.~.^.^.R.+.].*X-X&XZ.m o < '.dXrXBXVXVXVXVXVXVXVXVXVXVXVXVXVXVXVXVX",
"VXVXVXVXVXVXVXVXVXVXVXVXVXVXVXVXVXVXVXVXxXq.O + q Y F.Z.S.).:X~.~.~.~.;X/.F.F.Z.B * O I iXVXVXVXVXVXVXVXVXVXVXVXVXVXVXVXVXVXVXVX",
"VXVXVXVXVXVXVXVXVXVXVXVXVXVXVXVXVXVXVXVXVXmXI > < 9 C m C.(.-X=X&X&X*X=XA.C C M 3 , H kXVXVXVXVXVXVXVXVXVXVXVXVXVXVXVXVXVXVXVXVX",
"VXVXVXVXVXVXVXVXVXVXVXVXVXVXVXVXVXVXVXVXVXCXmXt.) > O O V V.G.D.D.D.G.D.B % O > , >.xXVXVXVXVXVXVXVXVXVXVXVXVXVXVXVXVXVXVXVXVXVX",
"VXVXVXVXVXVXVXVXVXVXVXVXVXVXVXVXVXVXVXVXVXVXVXbXe.( _ ( 3 V m N N N m M 3 : ( ( #.cXCXVXVXVXVXVXVXVXVXVXVXVXVXVXVXVXVXVXVXVXVXVX",
"VXVXVXVXVXVXVXVXVXVXVXVXVXVXVXVXVXVXVXVXVXVXVXVXcX|.&.) , W aXaXyX9XyX1X, ) &.|.jXVXVXVXVXVXVXVXVXVXVXVXVXVXVXVXVXVXVXVXVXVXVXVX",
"VXVXVXVXVXVXVXVXVXVXVXVXVXVXVXVXVXVXVXVXVXVXVXVXVXbXXXr.e.dXCXVXVXVXVXlX8.t..XjXCXVXVXVXVXVXVXVXVXVXVXVXVXVXVXVXVXVXVXVXVXVXVXVX",
"VXVXVXVXVXVXVXVXVXVXVXVXVXVXVXVXVXVXVXVXVXVXVXVXVXVXVXVXCXVXVXVXVXVXVXVXVXVXVXVXVXVXVXVXVXVXVXVXVXVXVXVXVXVXVXVXVXVXVXVXVXVXVXVX",
"VXVXVXVXVXVXVXVXVXVXVXVXVXVXVXVXVXVXVXVXVXVXVXVXVXVXVXVXVXVXVXVXVXVXVXVXVXVXVXVXVXVXVXVXVXVXVXVXVXVXVXVXVXVXVXVXVXVXVXVXVXVXVXVX",
"VXVXVXVXVXVXVXVXVXVXVXVXVXVXVXVXVXVXVXVXVXVXVXVXVXVXVXVXVXVXVXVXVXVXVXVXVXVXVXVXVXVXVXVXVXVXVXVXVXVXVXVXVXVXVXVXVXVXVXVXVXVXVXVX",
"VXVXVXVXVXVXVXVXVXVXVXVXVXVXVXVXVXVXVXVXVXVXVXVXVXVXVXVXVXVXVXVXVXVXVXVXVXVXVXVXVXVXVXVXVXVXVXVXVXVXVXVXVXVXVXVXVXVXVXVXVXVXVXVX",
"VXVXVXVXVXVXVXVXVXVXVXVXVXVXVXVXVXVXVXVXVXVXVXVXVXVXVXVXVXVXVXVXVXVXVXVXVXVXVXVXVXVXVXVXVXVXVXVXVXVXVXVXVXVXVXVXVXVXVXVXVXVXVXVX",
"VXVXVXVXVXVXVXVXVXVXVXVXVXVXVXVXVXVXVXVXVXVXVXVXVXVXVXVXVXVXVXVXVXVXVXVXVXVXVXVXVXVXVXVXVXVXVXVXVXVXVXVXVXVXVXVXVXVXVXVXVXVXVXVX",
"VXVXVXVXVXVXVXVXVXVXVXVXVXVXVXVXVXVXVXVXVXVXVXVXVXVXVXVXVXVXVXVXVXVXVXVXVXVXVXVXVXVXVXVXVXVXVXVXVXVXVXVXVXVXVXVXVXVXVXVXVXVXVXVX",
"VXVXVXVXVXVXVXVXVXVXVXVXVXVXVXVXVXVXVXVXVXVXVXVXVXVXVXVXVXVXVXVXVXVXVXVXVXVXVXVXVXVXVXVXVXVXVXVXVXVXVXVXVXVXVXVXVXVXVXVXVXVXVXVX",
"VXVXVXVXVXVXVXVXVXVXVXVXVXVXVXVXVXVXVXVXVXVXVXVXVXVXVXVXVXVXVXVXVXVXVXVXVXVXVXVXVXVXVXVXVXVXVXVXVXVXVXVXVXVXVXVXVXVXVXVXVXVXVXVX",
"VXVXVXVXVXVXVXVXVXVXVXVXVXVXVXVXVXVXVXVXVXVXVXVXVXVXVXVXVXVXVXVXVXVXVXVXVXVXVXVXVXVXVXVXVXVXVXVXVXVXVXVXVXVXVXVXVXVXVXVXVXVXVXVX",
"VXVXVXVXVXVXVXVXVXVXVXVXVXVXVXVXVXVXVXVXVXVXVXVXVXVXVXVXVXVXVXVXVXVXVXVXVXVXVXVXVXVXVXVXVXVXVXVXVXVXVXVXVXVXVXVXVXVXVXVXVXVXVXVX",
"VXVXVXVXVXVXVXVXVXVXVXVXVXVXVXVXVXVXVXVXVXVXVXVXVXVXVXVXVXVXVXVXVXVXVXVXVXVXVXVXVXVXVXVXVXVXVXVXVXVXVXVXVXVXVXVXVXVXVXVXVXVXVXVX",
"VXVXVXVXVXVXVXVXVXVXVXVXVXVXVXVXVXVXVXVXVXVXVXVXVXVXVXVXVXVXVXVXVXVXVXVXVXVXVXVXVXVXVXVXVXVXVXVXVXVXVXVXVXVXVXVXVXVXVXVXVXVXVXVX"
};
