/* XPM */
static char *b360924c1dcf459a924086beb2a72e28U5DqNq9UEya2tLPT[] = {
/* columns rows colors chars-per-pixel */
"64 64 175 2 ",
"   c #734E36",
".  c #6D5C37",
"X  c #745539",
"o  c #715C3B",
"O  c #7B5B3C",
"+  c #725636",
"@  c #6C6337",
"#  c #676B37",
"$  c #6C663A",
"%  c #676B3A",
"&  c #6C6B39",
"*  c #73653D",
"=  c #79623C",
"-  c #736B3E",
";  c #796B3F",
":  c #67703A",
">  c #6B733B",
",  c #6D793E",
"<  c #72723E",
"1  c #7B5C42",
"2  c #7C6545",
"3  c #766B42",
"4  c #7A6B45",
"5  c #796946",
"6  c #767444",
"7  c #7B7245",
"8  c #7E7449",
"9  c #7C7A4A",
"0  c #727B48",
"q  c #884529",
"w  c #86482F",
"e  c sienna",
"r  c #826547",
"t  c #846C49",
"y  c #856648",
"u  c #83724A",
"i  c #88794E",
"p  c #8D6F50",
"a  c #8D7353",
"s  c #8F7D55",
"d  c #82795C",
"f  c #827A55",
"g  c #947A5B",
"h  c #74814A",
"j  c #7C8252",
"k  c #7E865B",
"l  c #7B935C",
"z  c #84804B",
"x  c #858457",
"c  c #94865B",
"v  c #99825C",
"b  c #888B66",
"n  c #9B9064",
"m  c #8D9575",
"M  c #969C7D",
"N  c #A08D66",
"B  c #80A167",
"V  c #80A16A",
"C  c #8FA27C",
"Z  c #87A87D",
"A  c #95A07C",
"S  c #657E94",
"D  c #7EAFFF",
"F  c #9D9D9D",
"G  c #949886",
"H  c #8DA48D",
"J  c #94A886",
"K  c #8DB386",
"L  c #BD9CA8",
"P  c #9CB7A5",
"I  c #A2A2A2",
"U  c #ADADAD",
"Y  c #B7A4AF",
"T  c #BAA2AD",
"R  c #B7A8AC",
"E  c #B7A4B3",
"W  c #B4ACB5",
"Q  c #AFB1BB",
"!  c #B2B2B2",
"~  c #BABABA",
"^  c #C4A9BB",
"/  c #AFC298",
"(  c #94CBA5",
")  c #95AACF",
"_  c #98AFCF",
"`  c #9BB4CE",
"'  c #9BBECF",
"]  c #8FA9DC",
"[  c #8DA4DD",
"{  c #94ACD4",
"}  c #92ABDB",
"|  c #91A4DA",
" . c #96B4D6",
".. c #98B6D6",
"X. c #99B9D6",
"o. c #94B2DB",
"O. c #94BDDD",
"+. c #A7BBCA",
"@. c #8AA4E2",
"#. c #8CAAE2",
"$. c #87A8EB",
"%. c #8DB4E4",
"&. c #8BB3EB",
"*. c #89B6E8",
"=. c #91B5E1",
"-. c #92BDE2",
";. c #85AFF5",
":. c #85B4F6",
">. c #8CB6F1",
",. c #8BBCF3",
"<. c #82B1F8",
"1. c #C2B1C5",
"2. c #9EC3CF",
"3. c #9FC9CF",
"4. c #9DC5D1",
"5. c #9FC9D1",
"6. c #95C0DD",
"7. c #99C5DD",
"8. c #9BCDDB",
"9. c #9ED3D6",
"0. c #9BD1DD",
"q. c #9DDDDC",
"w. c #A1C4CB",
"e. c #A0C9CE",
"r. c #A4CCC5",
"t. c #A0D3CD",
"y. c #A0CAD1",
"u. c #A0CFD6",
"i. c #9EE0DC",
"p. c #94C0E2",
"a. c #94C4E2",
"s. c #93C0E4",
"d. c #94C4E4",
"f. c #94C5E4",
"g. c #96C3E6",
"h. c #95CAE0",
"j. c #95CCE0",
"k. c #94CCE0",
"l. c #95CFE0",
"z. c #94CAE4",
"x. c #94CCE4",
"c. c #98CCE0",
"v. c #99CCE0",
"b. c #99CFE0",
"n. c #98CFE0",
"m. c #9ACEE0",
"M. c #9AD1E0",
"N. c #99D1E0",
"B. c #9BD6E0",
"V. c #96DCE3",
"C. c #8AC4F5",
"Z. c #8ECBF1",
"A. c #91CFF1",
"S. c #92D3F1",
"D. c #C1C1C1",
"F. c gray76",
"G. c #C3C3C3",
"H. c gray77",
"J. c #C5C5C5",
"K. c #C6C6C6",
"L. c #C3C3C3",
"P. c gray79",
"I. c #D0D0D0",
"U. c #DADADA",
"Y. c gray86",
"T. c #DDDDDD",
"R. c gainsboro",
"E. c gray87",
"W. c #DFDFDF",
"Q. c #DDDDDD",
"!. c #E2E2E2",
"~. c gray90",
"^. c #E6E6E6",
"/. c #E7E7E7",
"(. c #E5E5E5",
/* pixels */
"S S S S S S S S S S S S S S S S S S S S S S S S S S S S S S S S S S S S S S S S S S S S S S S S S S S S S S S S S S S S S S S S ",
"S S S S S S S S S S S S S S S S S S S S S S S S S S S S S S S S S S S S S S S S S S S S S S S S S S S S S S S S S S S S S S S S ",
"S S S S S S S S S S S S S S S S S S S S S S S S S S S S S S S S S S S S S S S S S S S S S S S S S S S S S S S S S S S S S S S S ",
"S S S S S S S S S S S S S S S S S S S S S S S S S S S S S S S S S S S S S S S S S S S S S S S S S S S S S S S S S S S S S S S S ",
"S S S S S S S S S S S S S S S S S S S S S S S S S S S S S S S S S S S S S S S S S S S S S S S S S S S S S S S S S S S S S S S S ",
"S S S S S S S S S S S S S S S S S S S S S S S S S S S S S S S S S S S S S S S S S S S S S S S S S S S S S S S S S S S S S S S S ",
"S S S S S S S S S S S S S S S S S S S S S S S S S S S S S S S S S S S S S S S S S S S S S S S S S S S S S S S S S S S S S S S S ",
"F F F F F F F F F F F F F F F F F F F F F F F F F F F F F F F F F F F F F F F F F F F F F F F F F F F F F F F F F F F F F F F F ",
"W.W.T.T.T.R.T.T.T.T.T.T.T.T.T.T.E.T.T.E.E.T.E.E.T.T.T.W.T.T.T.T.W.E.E.E.T.T.E.E.E.T.T.T.Q.Q.Q.Q.T.R.R.R.T.R.T.R.Q.Q.T.W.T.Q.W.W.",
"W.~./././.^.^.^.^.^.^.^.^.^.!.^./.!.!././.!.!.(.^.^.^./.^.^./.^.!.~.(././././.!./.^./.!.~.~.~.~.^.~.^.~.^.^.^.~.^.^././././.^.W.",
"^.I.H.H.H.H.H.H.F.H.F.F.F.H.F.F.G.G.G.G.G.G.G.G.H.G.H.H.H.H.F.P.!.!.P.G.H.G.G.G.G.G.G.G.G.G.G.G.H.F.F.H.H.F.H.H.G.G.G.K.G.G.I.~.",
"^.H.U ! ! ! ! ! ! ! ! ! ! ! ! ! ! ! ! ! ! ! ! ! ! ! ! ! ! ! U ! W.(.! I ~ ! ! ! ! ! ! ! ! ! ! ! ! ! ! ! ! ! ! ! ! ! ! ! ! U G.^.",
"/.F.U ^.W.!.~.!.^.^.!.!.^.^.^.^.~.~.~.!.~.~.~.~.^.^.!.^.^.^.I ~ E.W.~ I !./.!.^.^.!./.^.^.~.^.~.~.~.~.~.^.~.~.^.!.^.^.^.~.I H.^.",
"~.F.! ^.D :.&.;.;.<.<.;.;.;.;.;.;.;.;.;.;.;.;.<.;.;.;.#.D !.I ~ Y.E.~ I /.$.| @.#.#.@.@.] @.#.@.] #.] @.@.#.#.@.@.] @.@.~.I F.~.",
"^.F.! ^.D ;.#.*.&.&.$.*.&.&.&.&.;.*.*.#.&.&.;.*.*.#.*.#.<.^.I ~ T.E.~ I !.$.{ ] } } ] } } } } } } } } } | ] | } } | @.@.~.I F.^.",
"^.H.! ^.;.*.] #.*.#.*.#.*.#.*.#.#.*.#.*.*.#.#.*.#.*.*.] <.^.I ~ T.T.~ I /.#.) } } } | } } | } | } | } } } } } } | { } ] ~.I H.^.",
"~.F.! !.&.&.%.#.&.=.%.&.%.&.&.&.&.&.&.&.&.%.&.%.-.%.%.=.<./.I ~ Y.E.~ I ~.#.) } } } } } } } } } } } } } } } } } } } ] ] /.I F.^.",
"^.F.! ~.*.>.>.&.,.&.&.>.&.>.>.>.>.>.>.>.>.>.>.&.&.&.&.=.:.~.I ~ Y.W.~ I ~.=.) o.o.o.o.} =.} =.o.} o.o.o.=.} o.o.} } o.} ^.I F.^.",
"~.F.! ~.*.,.=.%.&.&.>.%.>.=.=.-.=.-.=.=.=.>.=.>.&.&.%.=.:.^.I ~ Y.E.~ I ~.#.) } } o. .} o.o.o.o.o.o.o.} o.o.} =...{ } o.!.I F.!.",
"~.D.! ~.&.,.=.=.%.%.-.%.-.=.=.&.=.&.&.=.=.%.=.-.%.%.O.=.>.^.I ~ U.Q.~ I /.=.` } o.o.o.o.} o.o.o.o.o.} o.o.o... ._ _ =.} /.I F./.",
"~.F.! ~.*.,.O.=.-.-.-.-.-.-.-.s.-.s.-.-.-.-.-.-.-.-.-.=.,.~.F ~ Y.Q.~ I (.=._  . . . . . .o. . .o... . . . . . . .o.o.o.^.I F.!.",
"~.D.! ^.,.,.O.O.-.-.-.-.-.d.-.-.-.-.-.d.s.-.-.-.-.-.-.-.,.~.I ~ U.Q.~ I (.=._  . . . . . . . . . ... ... . . . .......o.^.I F./.",
"~.D.! ^.s.d.d.d.-.-.-.s.-.-.s.s.s.s.s.s.s.-.-.-.-.-.-.-.C.!.I ~ U.Q.~ I (.=... ... . ... . . ...o. . ... ... ...X...X.../.I r./.",
"~.D.! ^.-.d.d.d.f.f.f.s.d.f.f.s.f.f.f.g.s.f.f.g.f.f.f.z.C.!.I ~ U.Q.~ I ^.=.` .......... ... ....... .X.........X...X.../.I ^ ^.",
"~.D.! ~.d.d.d.d.d.d.d.d.d.d.d.f.f.f.f.s.d.d.d.d.d.f.f.s.C.~.I ~ U.Q.~ I ~.=.` X.X.X...X...X...X..... .X. . . . . . . . .^.I F.^.",
"~.D.! ~.d.h.d.d.d.d.h.d.d.f.d.h.f.f.f.f.d.f.d.d.h.f.f.f.C.~.I ~ U.Q.~ I ~.=.` X.X.X...X...X.X.X.X.X.X.X.X.X.X.X..... ...^.I +.~.",
"^.r.! !.g.g.g.g.f.f.f.f.g.f.g.g.f.f.f.f.d.f.g.g.f.f.f.f.C.~.F ~ U.Q.~ I (.O.' X...X.X.X.X.X.X.X.X.X.X.X.X.X. .X.........^.I G.^.",
"^.F.! ^.h.x.k.z.z.z.z.z.h.z.k.z.z.z.z.z.h.x.x.z.z.z.z.z.Z.!.I ~ U.Q.~ I (.O.' ' 2.' ' ' X.X.X.X.X.X.X.X.X. .X.X...X.X...^.I D.^.",
"^.^ ! (.8.8.k.k.k.k.k.k.h.k.k.k.k.k.k.v.h.k.k.v.k.k.k.k.Z.^.I ~ Y.Y.~ I (.O.' ' ' ' ' 2.' ' ' ' ' ' ' ' X.X.X. .X.X...X.~.I ^ /.",
"/.J.! (.h.8.k.k.k.k.k.k.v.k.k.k.k.k.k.k.k.k.k.k.k.k.k.k.Z.^.I ~ Y.E.~ I (.O.+.' ' ' 4.X.' ' ' ' 2.' 2.X.' ' 2.2.X.X.X.' ~.I L./.",
"/.D.! (.z.k.k.k.k.v.k.v.v.c.c.v.v.v.k.v.v.v.v.k.v.k.k.8.Z.^.I ~ Y.Y.~ I ~.6.' 2.' 4.4.2.4.4.4.4.4.4.2.2.' ' ' 2.2.' ' ' ~.I L.~.",
"(.D.! (.h.k.k.v.v.v.v.N.v.N.v.N.0.N.v.N.N.v.v.v.v.v.v.8.S.^.I ~ Y.E.~ F ~.7.+.2.2.2.4.2.4.4.4.4.4.4.2.2.2.2.2.2.2.2.3.3.~.I D.~.",
"/.^ ! (.k.n.m.v.N.N.v.N.W W W W 0.0.0.m.N.v.v.N.N.v.k.8.Z.^.F ~ Y.Y.~ F /.7.3.3.2.2.2.2.2.4.4.4.e.4.4.4.4.2.2.4.2.e.4.4.!.I r./.",
"/.r.! (.n.v.m.m.N.v.N.W E T E E 0.0.0.M.M.M.M.m.N.N.v.8.S.^.I ~ Y.Y.~ I /.7.2.2.3.2.e.2.y.y.4.e.4.y.e.e.5.3.2.5.4.e.4.4./.I ^ /.",
"/.J.! (.n.N.0.M.B.0.N.Y 1.1.1.1.0.0.0.B.B.0.0.B.0.M.0.9.V./.I ~ Y.E.~ I ~.7.w.3.e.3.3.3.y.y.y.y.y.y.y.e.y.3.e.5.e.e.4.5.^.I K./.",
"/.L.! (.n.B.0.0.B.0.0.T 1.1.1.1.8.0.0.B.u.Q W 0.y.0.0.9.V.^.F ~ Y.Y.~ I ~.5.r.3.3.e.3.3.e.y.y.y.y.y.y.e.y.e.e.y.e.e.5.4.^.I F./.",
"(.D.! (.1.0.0.B.V.q.0.T 1.1.1.1.0.0.0.0.E T E 0.0.0.0.9.V.~.I ~ U.R.~ I ~.8.3.3.R R T 3.e.2.e.e.e.e.e.e.e.e.e.e.e.e.5.3.^.I D.~.",
"(.D.! (.0.0.8.W W i.q.Y 1.1.1.1.0.0.0.0.E Y 1.0.0.0.q.e.+.~.I ~ U.U.~ I ~.8.r.3.L T L 3.e.T L e.e.e.e.e.e.e.e.e.e.e.t.3.~.I D.~.",
"(.D.! (.1.0.0.1.T W q.Y 1.1.1.1.0.8.0.0.T Y 1.0.0.0.W T E ~.I ~ U.R.~ I ~.8.r.3.L T ^ e.e.^ L e.y.4.e.2.t.t.e.e.t.r.e.e.~.I D.~.",
"(.D.! (.1.0.0.1.Y T i.E 1.1.1.1.1.W W E 1.1.1.0.0.M.Y T T ~.F ~ U.R.~ I ~.5.r.3.T L ^ e.e.L L e.y.L T Y Y Y e.e.Y Y t.e.~.I D.~.",
"(.D.! (.^ 0.0.1.E E q.Y 1.1.1.1.1.Y E E 1.1.1.0.0.0.E Y Y /.I ~ U.E.~ I ~.9.e.e.L T L w.e.^ ^ L ^ T L ^ ^ ^ 3.e.T L R r.~.I D.~.",
"(.D.! (.1.0.0.1.1.1.1.Y 1.1.1.1.1.W 1.1.1.1.1.8.0.0.T Y T ^.I ~ U.R.~ I ^.Y e.2.^ T ^ e.e.L L L Y Y Y Y Y L e.e.T T T t.~.I D.~.",
"(.D.! (.1.0.0.1.1.1.1.1.1.1.j H T T T 1.E T T 0.0.0.1.L T ~.I ~ U.E.~ I ~.^ e.e.T ^ ^ L P C J G P m 9 m L ^ e.e.^ ^ L t.~.I D.~.",
"(.D.! (.1.0.1.1.1.1.1.L T j % 8 4 @ 3 x ( ( Z 0.0.M.1.W T ^.I ~ R.R.~ I ~.^ e.e.T ^ L L C < f 4 f - - 6 M L L L ^ ^ T r.~.I G.~.",
"~.D.! ~./ 0.0.1.T T 0 3 = * > < > : $ % 0 , : l T E 1.1.L ~.I ~ U.R.~ I ^.L e.w.L L T A u 3 4 < 6 < < 7 g L L L L ^ ^ L ~.I D.~.",
"~.F.! ~.1.1.1.1.( , : @   $ : : > % > 3 > : % & 0 K T T E ~.I ~ R.R.~ I ^.L e.e.K x b u < u O 7 6 < < 7 u j j J L R T L ~.I F.~.",
"^.F.! ^.1.1.1.1.V % % @ s > : : > 3 = 8 0 $ & # % h T T 1.^.I ~ R.E.~ I ~.L e.e.j < 6 r u i v 7 < 6 7 3 < < < 9 L L R L ~.I F.^.",
"~.F.! /.1.1.1.T B % & c n < % > > 8 O O 4   o > % 6 b E L ^.I ~ U.R.~ I ~.L j j < - - 7 4 s N u < 7 8 < < < - 3 L L L L ~.I F.~.",
"^.G.! ~.1.L * 2 7 $ > c n < : : : z t   = = - $ : 6 2 J T ^.I ~ R.T.~ I ~.L < < ; - < < < 4 v i 6 u r 3 < 3 * 2 u 7 L L ~.I F.^.",
"^.F.! ~.d . # 3 6 : % 8 c z < , 6 u r + X $ # $ 6 9 8   d ^.I ~ R.T.~ I ~.; ; & - < < > - = 2 2 a N a 2 ; * - u 9 < - 2 ~.I F.^.",
"~.F.! ^.+ + . O ; @ @ o o * 4 p 2 + +   X $ # @ * # =   + ^.I ~ Y.T.~ I ~.O = O = - 6 ; = O O 1 y p y 1 O O = u u 4 = O ~.I F.~.",
"/.H.U ~.~.~.~.^.^.^./.^./.!./.!./.!./.~.!.^.^.!.~.~.~.~././.I ~ T.W.~ I ~.~.~./.~.~.~.~.^.^.~.~.~.~.~.~.~.~.~.^.^.~.~.~.~.I F.^.",
"^.H.U ! ! ! ! ! ! ! ! ! ! ! ! ! ! ! ! ! ! ! ! ! ! ! ! ! ! ! I ! W.!.! U +.^ D.~ ~ ~ ~ ~ ~ ~ ~ ~ ~ ~ ~ ~ ~ ~ ~ ~ ~ ~ ~ ~ ~ ! L.^.",
"~.I.H.H.H.H.H.H.G.G.F.F.F.F.G.G.L.L.L.L.L.L.L.L.G.G.G.G.G.P.G.P.W.~.P.F.K.G.K.J.F.G.G.G.H.F.F.F.J.1.F.F.F.F.F.F.J.J.H.H.F.H.I.~.",
"W.^.^././.^.^./././.~.~.~.~./.~.~.~.~.~.~.~.~.~.~./.~./././././.~.!.~././.^.^.~.^.~.^.~.^.~.~.^.^.~.~.~.^.^.^.~././.^././.^.~.E.",
"W.W.R.E.T.T.R.T.Q.Q.Q.Q.Q.Q.Q.Q.T.T.T.T.T.T.T.W.Q.Q.Y.E.Q.E.E.E.T.W.T.W.T.T.T.Q.Q.Q.Q.Q.R.E.R.R.E.E.R.E.E.E.R.E.E.E.R.E.E.E.W.W.",
"F F F F F F F F F F F F F F F F F F F F F F F F F F F F F F F F F F F F F F F F F F F F F F F F F F F F F F F F F F F F F F F F ",
"e e e e e e e e e e e e e e e e e e e e e e e e e e e e e e e e e e e e e e e e e e e e e e e e e e e e e e e e e e e e e e e e ",
"e e w w w w w w w w w w w w w w w w w w w w w w w w w w w w w e e e q q q q q q q q q q q q q q q q q q q q q q q q q q q q e e ",
"e e w w w w w w w w w w w w w w w w w w w w w w w w w w w w w e e e q q q q q q q q q q q q q q q q q q q q q q q q q q q q e e ",
"e e w w w w w w w w w w w w w w w w w w w w w w w w w w w w w e e e q q q q q q q q q q q q q q q q q q q q q q q q q q q q e e ",
"e e w w w w w w w w w w w w w w w w w w w w w w w w w w w w w e e e q q q q q q q q q q q q q q q q q q q q q q q q q q q q e e ",
"e e w w w w w w w w w w w w w w w w w w w w w w w w w w w w q e e e q q q q q q q q q q q q q q q q q q q q q q q q q q q q e e ",
"e e e e e e e e e e e e e e e e e e e e e e e e e e e e e e e e e e e e e e e e e e e e e e e e e e e e e e e e e e e e e e e e "
};
